<?xml version="1.0" encoding="UTF-8"?>
<svg width="24px" height="24px" viewBox="0 0 24 24" version="1.1" xmlns="http://www.w3.org/2000/svg" xmlns:xlink="http://www.w3.org/1999/xlink">
    <!-- Generator: Sketch 63.1 (92452) - https://sketch.com -->
    <title>Icon/cancel-2/Text-Primary</title>
    <desc>Created with Sketch.</desc>
    <g id="Iconography" stroke="none" stroke-width="1" fill="none" fill-rule="evenodd">
        <g id="Icons---Text-Primary" transform="translate(-383.000000, -504.000000)">
            <g id="Icon/cancel-2/Text-Primary" transform="translate(383.000000, 504.000000)">
                <g>
                    <rect id="Rectangle" stroke="#030929" fill="#030929" x="0.5" y="0.5" width="23" height="23" rx="11.5"></rect>
                    <g id="Orion_cancel" transform="translate(11.800000, 12.200000) scale(-1, 1) translate(-11.800000, -12.200000) translate(6.800000, 7.200000)" fill="#F7F9FC" fill-rule="nonzero">
                        <path d="M9.40830568,8.48252368 L5.72565076,4.79985981 L9.4080875,1.11763228 C9.65613961,0.860819568 9.65259212,0.452602896 9.40011428,0.200139403 C9.14763645,-0.0523240897 8.73939658,-0.0558713822 8.48256927,0.192166638 L4.79991435,3.87439417 L1.11747761,0.191730304 C0.952110724,0.0263728167 0.711083242,-0.0382066332 0.48518788,0.0223184077 C0.259292518,0.0828434486 0.0828481556,0.259277787 0.0223196758,0.485160314 C-0.038208804,0.711042842 0.0263743151,0.95205663 0.191741197,1.11741412 L3.87417794,4.80007798 L0.191304838,8.48274184 C-0.0566874181,8.73961292 -0.0530440078,9.14782931 0.199493629,9.40023357 C0.452031266,9.65263783 0.860272525,9.65608857 1.11704125,9.40798932 L4.79991435,5.72554363 L8.48235109,9.40820749 C8.73798615,9.66388824 9.15250128,9.66393707 9.40819657,9.40831655 C9.66389186,9.15269603 9.66394071,8.73820445 9.40830568,8.48252368 Z" id="Path"></path>
                    </g>
                </g>
            </g>
        </g>
    </g>
</svg>